<svg width="16" height="16" viewBox="0 0 16 16" xmlns="http://www.w3.org/2000/svg"><path fill-rule="evenodd" clip-rule="evenodd" d="M13.617 13.3c-.337 1.018-1.318 1.774-2.38 1.692l-4.64-.693a1.045 1.045 0 0 1-.88-.896l-.663-4.99c-.04-.307.021-.617.176-.884.403-.699 1.211-2.108 1.572-2.805.573-1.105 1.585-3.339 1.585-3.339A.58.58 0 0 1 8.932 1c2.187 0 1.642 2.436.711 5.59h3.205c1.994 0 2.439 1.726 1.994 3.07l-1.225 3.64zM1.557 15A.557.557 0 0 1 1 14.442l.01-6.612c0-.307.25-.556.557-.556h1.197c.282 0 .52.21.553.49l.794 6.612a.557.557 0 0 1-.554.624h-2z" fill="#b3b3b3"></path></svg>