<svg width="50" height="50" viewBox="0 0 50 50" fill="none" xmlns="http://www.w3.org/2000/svg">
<path fill-rule="evenodd" clip-rule="evenodd" d="M48.7763 42.8673L38.1524 32.06L37.3534 31.9601C39.4907 28.718 41.1131 24.7303 41.1131 20.5567C41.1131 9.20351 31.9096 0 20.5565 0C9.20351 0 0 9.20351 0 20.5565C0 31.9094 9.20332 41.1131 20.5563 41.1131C24.7301 41.1131 28.9177 39.4907 32.1599 37.3534V38.0525L42.8671 48.7763C44.4989 50.4079 47.1444 50.4079 48.7763 48.7763C50.4079 47.1446 50.4079 44.4991 48.7763 42.8673ZM20.5565 33.9868C13.139 33.9868 7.12611 27.9739 7.12611 20.5565C7.12611 13.139 13.1392 7.12611 20.5565 7.12611C27.9737 7.12611 33.9868 13.1392 33.9868 20.5565C33.9868 27.9739 27.9737 33.9868 20.5565 33.9868Z" fill="white"/>
</svg>
