<svg width="34" height="22" viewBox="0 0 34 22" fill="none" xmlns="http://www.w3.org/2000/svg">
<path d="M1.14803 0.75293C2.33693 0.75293 4.14857 0.75293 5.16763 0.75293C5.67715 0.75293 6.07345 1.09261 6.24329 1.54553C6.75282 3.01749 7.8851 6.24449 9.18722 8.45243C10.9423 11.3397 12.0745 12.4154 12.8105 12.3022C13.5465 12.1323 13.32 10.2075 13.32 8.67889C13.32 7.15031 13.4899 4.54607 12.7539 3.35717L11.6216 1.71537C11.3386 1.31907 11.6216 0.809544 12.0745 0.809544H18.5285C19.1513 0.809544 19.6608 1.31907 19.6608 1.94182V10.1509C19.6608 10.1509 19.9439 11.6228 21.5291 10.0942C23.1143 8.56566 24.8127 5.73496 26.228 2.84765L26.7942 1.48891C26.964 1.09261 27.3603 0.809544 27.8132 0.809544H32.0027C32.7953 0.809544 33.3614 1.60214 33.0783 2.33812L32.6254 3.52702C32.6254 3.52702 31.0968 6.58417 29.5116 8.7355C27.9265 10.9434 27.5868 11.453 27.8132 12.0191C28.0397 12.5853 32.1159 16.3784 33.1349 18.19C33.418 18.6996 33.6445 19.1525 33.8709 19.5488C34.2672 20.2848 33.7011 21.2472 32.8519 21.2472H28.0963C27.7 21.2472 27.3037 21.0207 27.1339 20.6811L26.6809 19.9451C26.6809 19.9451 23.7936 16.5482 22.0386 15.4726C20.227 14.4535 20.2836 15.9255 20.2836 15.9255V18.926C20.2836 20.1715 19.2645 21.1906 18.019 21.1906H16.8867C16.8867 21.1906 10.6592 21.1906 5.67715 13.7742C1.77079 7.99952 0.468664 4.263 0.0157516 2.11167C-0.0974764 1.4323 0.41205 0.75293 1.14803 0.75293Z" fill="white"/>
</svg>
