<svg width="28" height="28" viewBox="0 0 28 28" fill="none" xmlns="http://www.w3.org/2000/svg">
<path d="M27.7702 13.1535C27.7361 16.7657 26.8074 19.5917 24.8759 22.0473C22.802 24.6853 20.1013 26.3604 16.7968 27.0384C14.2443 27.5569 11.7601 27.329 9.32159 26.4458C8.78033 26.2464 8.25046 26.0128 7.74337 25.7336C7.58954 25.6482 7.4585 25.6368 7.28757 25.6938C4.98007 26.4401 2.66686 27.1808 0.35366 27.9158C0.251104 27.95 0.114363 28.0468 0.0345975 27.9728C-0.0565632 27.8816 0.0573877 27.7449 0.091573 27.6366C0.553074 26.2635 1.01458 24.8847 1.48177 23.5116C1.76665 22.6741 2.04013 21.8422 2.33641 21.0104C2.41617 20.7939 2.38768 20.6286 2.26803 20.4292C1.68119 19.4265 1.24817 18.3553 0.940507 17.2329C0.365055 15.1248 0.302382 12.9939 0.752488 10.8631C1.24248 8.53846 2.26803 6.46455 3.84625 4.67552C5.75493 2.51046 8.10802 1.08037 10.9055 0.39097C12.6888 -0.0477411 14.4893 -0.116112 16.3011 0.180161C18.6713 0.567594 20.8078 1.50769 22.6709 3.02324C24.6081 4.60145 26.0211 6.56141 26.9099 8.9145C27.3999 10.185 27.7873 12.2647 27.7702 13.1535ZM3.5101 24.5315C4.92309 24.0757 6.27341 23.6426 7.61233 23.2039C7.78896 23.147 7.93139 23.1584 8.08523 23.2609C8.59801 23.6028 9.15067 23.8762 9.72042 24.1155C11.5721 24.9018 13.4979 25.1867 15.4863 24.9303C17.9249 24.6169 20.0672 23.6369 21.8676 21.9334C24.1352 19.7854 25.3488 17.1531 25.457 14.0423C25.5596 10.9941 24.5796 8.31625 22.5342 6.04293C20.5913 3.88356 18.1528 2.65289 15.2755 2.34523C12.7743 2.07744 10.4326 2.61871 8.26755 3.91775C6.41585 5.03447 4.99716 6.55571 4.01148 8.47578C2.92325 10.5896 2.55291 12.8344 2.86628 15.1875C3.09988 16.9651 3.738 18.6003 4.76356 20.0703C4.87751 20.2355 4.9117 20.3723 4.84332 20.566C4.63252 21.1471 4.4445 21.734 4.24508 22.3151C4.00579 23.033 3.77219 23.7509 3.5101 24.5315Z" fill="white"/>
<path d="M7.29327 10.4699C7.32176 9.11391 7.80035 8.10544 8.70626 7.30209C8.99683 7.04 9.35578 6.92605 9.76031 6.98303C9.93123 7.00582 10.1022 7.02291 10.2731 7.01152C10.5921 6.99442 10.8087 7.14826 10.9169 7.42744C11.2986 8.41881 11.669 9.41018 12.0393 10.4073C12.1647 10.7491 11.9482 11.0169 11.7658 11.2619C11.555 11.5525 11.2986 11.8088 11.0479 12.0652C10.7916 12.3273 10.7574 12.4755 10.934 12.7945C11.9653 14.669 13.4124 16.1105 15.3781 16.9993C15.4465 17.0278 15.5148 17.0677 15.5832 17.1019C15.8453 17.2215 16.0789 17.193 16.2783 16.9651C16.6429 16.5378 17.0418 16.1447 17.3779 15.6946C17.6001 15.3983 17.754 15.347 18.0901 15.4952C19.0929 15.9282 20.033 16.4751 20.9902 17.005C21.1668 17.1019 21.2295 17.25 21.2238 17.4551C21.1725 19.1359 20.2096 20.0133 18.5174 20.4007C17.697 20.5888 16.9392 20.3837 16.1871 20.1102C14.6089 19.5404 13.0877 18.8681 11.8114 17.74C10.7973 16.8398 9.90274 15.837 9.14497 14.7146C8.56382 13.8486 7.95988 12.9996 7.62373 11.9912C7.43001 11.4556 7.28757 10.9086 7.29327 10.4699Z" fill="white"/>
</svg>
