<svg width="35" height="24" viewBox="0 0 35 24" fill="none" xmlns="http://www.w3.org/2000/svg">
<path d="M34.4432 19.1316C34.3434 20.2456 33.8543 21.2889 33.0619 22.0782C32.2694 22.8676 31.2242 23.3525 30.1098 23.448C27.4448 23.6691 23.4948 23.9001 18.621 23.9001C12.75 23.9001 8.31868 23.6602 5.45445 23.4352C4.33567 23.3457 3.28457 22.8635 2.48697 22.0738C1.68936 21.2842 1.19663 20.238 1.09586 19.1201C0.921454 17.2982 0.770782 14.9048 0.770782 12.072C0.770782 9.167 0.922677 6.73061 1.09805 4.88562C1.19782 3.7668 1.69013 2.71933 2.48788 1.92856C3.28562 1.1378 4.33737 0.6547 5.45702 0.564759C8.32125 0.3399 12.7517 0.100098 18.621 0.100098C23.4949 0.100098 27.4448 0.331077 30.1098 0.552213C31.2242 0.647656 32.2694 1.13262 33.0619 1.92196C33.8543 2.7113 34.3434 3.75456 34.4432 4.8686C34.6187 6.70377 34.7708 9.12382 34.7708 12.0001C34.7708 14.8764 34.6187 17.2964 34.4432 19.1316Z" fill="white"/>
<path d="M13.99 16.9963V7.00374L23.8466 12L13.99 16.9963Z" fill="black"/>
</svg>
